<svg width="33" height="33" xmlns="http://www.w3.org/2000/svg">

 <g>
  <title>background</title>
  <rect fill="none" id="canvas_background" height="602" width="802" y="-1" x="-1"/>
 </g>
 <g>
  <title>Layer 1</title>
  <path stroke="#ffffff" id="svg_1" fill="#ffffff" d="m9.85718,26.4282c-1.80715,0 -3.26929,1.4786 -3.26929,3.2857c0,1.8072 1.46214,3.2858 3.26929,3.2858c1.80712,0 3.28572,-1.4786 3.28572,-3.2858c0,-1.8071 -1.4786,-3.2857 -3.28572,-3.2857z"/>
  <path stroke="#ffffff" id="svg_2" fill="#ffffff" d="m26.2859,26.4282c-1.8072,0 -3.2693,1.4786 -3.2693,3.2857c0,1.8072 1.4621,3.2858 3.2693,3.2858c1.8071,0 3.2857,-1.4786 3.2857,-3.2858c0,-1.8071 -1.4786,-3.2857 -3.2857,-3.2857z"/>
  <path stroke="#ffffff" id="svg_3" fill="#ffffff" d="m23.9036,18.214c1.2321,0 2.3164,-0.6736 2.875,-1.6921l5.8814,-10.66218c0.6079,-1.08428 -0.1807,-2.43143 -1.4293,-2.43143l-24.31427,0l-1.54429,-3.28571l-5.37214,0l0,3.28571l3.28571,0l5.91429,12.46931l-2.21786,4.0085c-1.19928,2.2015 0.37786,4.8793 2.875,4.8793l19.71426,0l0,-3.2857l-19.71426,0l1.80716,-3.2857l12.2393,0zm-15.42646,-11.49999l19.96076,0l-4.5343,8.21429l-11.5329,0l-3.89356,-8.21429z"/>
 </g>
</svg>