<?xml version="1.0" standalone="no"?>
<!DOCTYPE svg PUBLIC "-//W3C//DTD SVG 20010904//EN"
 "http://www.w3.org/TR/2001/REC-SVG-20010904/DTD/svg10.dtd">
<svg version="1.0" xmlns="http://www.w3.org/2000/svg"
 width="700.000000pt" height="700.000000pt" viewBox="0 0 700.000000 700.000000"
 preserveAspectRatio="xMidYMid meet">
<metadata>
Created by potrace 1.11, written by Peter Selinger 2001-2013
</metadata>
<g transform="translate(0.000000,700.000000) scale(0.100000,-0.100000)"
fill="#000000" stroke="none">
<path d="M3458 6974 c-66 -53 -188 -187 -234 -256 -153 -229 -151 -437 6 -668
47 -68 162 -194 222 -242 37 -29 39 -29 63 -14 78 51 217 207 283 317 39 64
71 165 77 241 10 124 -29 247 -122 383 -42 62 -180 207 -232 244 l-29 21 -34
-26z"/>
<path d="M1053 5983 c-13 -3 -23 -7 -24 -11 0 -4 -2 -16 -5 -27 -14 -70 -9
-245 11 -355 58 -329 297 -494 707 -487 75 1 139 5 142 8 12 12 17 55 17 169
2 320 -97 523 -304 625 -116 56 -210 76 -377 79 -80 1 -155 1 -167 -1z"/>
<path d="M5698 5985 c-1 -1 -28 -6 -58 -9 -159 -19 -306 -88 -391 -184 -70
-80 -126 -219 -144 -357 -12 -95 -6 -298 10 -324 6 -10 310 -8 360 3 163 34
297 107 378 206 41 49 93 176 112 271 3 13 8 38 11 54 8 41 8 264 0 302 -6 28
-12 31 -54 36 -48 6 -218 8 -224 2z"/>
<path d="M2623 5598 c-46 -64 -117 -241 -149 -376 -30 -124 -34 -264 -9 -357
50 -192 195 -345 440 -467 104 -52 241 -102 261 -94 25 9 99 175 144 321 50
162 52 357 6 479 -77 204 -294 378 -603 482 -84 28 -78 27 -90 12z"/>
<path d="M4272 5581 c-105 -37 -237 -101 -316 -155 -78 -52 -183 -156 -223
-221 -99 -158 -109 -388 -26 -634 39 -119 113 -271 132 -271 28 0 183 59 265
101 413 210 534 503 389 939 -28 87 -113 263 -128 267 -5 1 -47 -11 -93 -26z"/>
<path d="M1880 4543 c-158 -22 -460 -135 -476 -178 -8 -19 29 -128 77 -232 88
-193 212 -342 351 -421 188 -107 491 -81 791 69 42 22 77 45 77 52 0 6 -9 39
-19 72 -61 191 -151 347 -272 467 -60 60 -95 85 -160 116 -46 22 -102 43 -124
47 -43 9 -203 14 -245 8z"/>
<path d="M4871 4529 c-116 -27 -192 -72 -286 -166 -63 -64 -117 -138 -161
-223 -15 -30 -28 -57 -29 -60 0 -3 -8 -18 -17 -35 -17 -34 -57 -144 -68 -192
-7 -31 -7 -31 74 -71 265 -131 518 -169 701 -108 209 71 388 287 495 595 32
91 32 95 14 108 -50 38 -287 132 -369 148 -157 29 -245 30 -354 4z"/>
<path d="M540 3887 c-3 -3 -19 -7 -35 -10 -125 -19 -350 -179 -475 -337 l-29
-37 25 -34 c41 -56 165 -172 232 -218 270 -183 491 -171 757 40 83 67 205 197
205 220 0 14 -151 168 -213 217 -137 108 -255 157 -388 161 -41 1 -77 0 -79
-2z"/>
<path d="M6260 3874 c-124 -33 -271 -134 -404 -275 -78 -83 -83 -91 -66 -112
221 -269 473 -401 686 -357 82 17 145 45 239 105 79 51 219 179 263 242 l22
31 -27 34 c-15 18 -58 65 -97 103 -203 202 -419 282 -616 229z"/>
<path d="M1985 3344 c-258 -60 -446 -264 -565 -613 -38 -111 -44 -100 90 -163
305 -142 570 -158 768 -46 141 80 277 258 362 473 18 44 33 87 35 95 2 8 8 28
14 43 6 16 9 32 6 36 -9 15 -177 92 -263 121 -48 16 -119 35 -158 43 -67 14
-247 20 -289 11z"/>
<path d="M4665 3320 c-151 -39 -349 -123 -361 -154 -13 -34 92 -280 173 -405
57 -87 188 -211 263 -248 204 -102 456 -83 754 57 127 59 123 52 91 146 -62
182 -181 384 -282 475 -61 56 -142 106 -213 130 -52 18 -91 23 -190 25 -109 2
-139 -1 -235 -26z"/>
<path d="M3076 2669 c-236 -79 -412 -194 -518 -337 -154 -207 -147 -506 18
-850 35 -73 48 -92 62 -88 9 3 31 8 47 12 17 4 77 27 133 51 273 116 440 270
503 465 37 116 33 284 -11 443 -31 110 -110 298 -138 327 -4 4 -47 -6 -96 -23z"/>
<path d="M3808 2658 c-46 -89 -70 -146 -99 -232 -41 -125 -48 -164 -54 -291
-9 -196 52 -338 205 -483 50 -47 186 -135 270 -174 56 -26 225 -88 240 -88 24
0 137 278 160 390 5 25 12 56 15 70 11 46 8 217 -5 271 -54 237 -277 435 -619
550 -47 16 -86 29 -88 29 -1 0 -13 -19 -25 -42z"/>
<path d="M1603 1898 c-347 -35 -524 -197 -578 -530 -14 -89 -16 -320 -3 -333
11 -12 112 -21 202 -19 461 12 674 239 674 717 0 99 -4 141 -13 151 -7 7 -39
14 -72 15 -32 2 -76 3 -98 4 -22 1 -72 -1 -112 -5z"/>
<path d="M5257 1904 c-1 -1 -33 -4 -71 -7 -42 -3 -72 -10 -77 -18 -5 -8 -7
-88 -5 -179 3 -144 7 -177 30 -255 33 -109 66 -172 126 -238 87 -97 221 -159
390 -181 124 -16 309 -11 329 9 13 14 5 310 -11 381 -32 139 -95 262 -169 331
-72 66 -208 124 -339 143 -57 9 -197 19 -203 14z"/>
<path d="M3413 1145 c-93 -86 -195 -215 -231 -294 -96 -209 -77 -377 68 -591
44 -64 172 -199 227 -238 l31 -22 49 41 c49 43 118 112 163 165 33 38 111 158
110 169 0 3 7 20 16 38 43 81 55 205 32 309 -16 71 -85 204 -147 282 -58 73
-207 216 -224 216 -7 0 -49 -34 -94 -75z"/>
</g>
</svg>
