<?xml version="1.0" encoding="utf-8"?>
<!-- Generator: Adobe Illustrator 23.0.1, SVG Export Plug-In . SVG Version: 6.00 Build 0)  -->
<svg version="1.1" id="Слой_1" xmlns="http://www.w3.org/2000/svg" xmlns:xlink="http://www.w3.org/1999/xlink" x="0px" y="0px"
	 viewBox="0 0 624 153.4" style="enable-background:new 0 0 624 153.4;" xml:space="preserve">
<style type="text/css">
	.st0{fill-rule:evenodd;clip-rule:evenodd;fill:#C31627;}
	.st1{fill-rule:evenodd;clip-rule:evenodd;fill:#FFFFFF;}
</style>
<g>
	<polygon class="st0" points="0,153.4 624,153.4 624,0 0,0 0,153.4 	"/>
	<path class="st1" d="M65,55.3c5.9,5.3,26.2,23.3,29.3,26.1c0,4.2,0,30.3,0,38.9c-9.1,0-49,0-58.1,0c0-8.6,0-34.8,0-39
		C39.4,78.6,59.2,60.6,65,55.3L65,55.3z M61.2,45.3L28.4,75c-1.2,1.1-1.9,2.6-1.9,4.2v45c0,3.1,2.6,5.7,5.7,5.7h66.2
		c3.1,0,5.7-2.5,5.7-5.7v-45c0-1.6-0.7-3.2-1.9-4.3L68.8,45.2C66.6,43.3,63.4,43.3,61.2,45.3L61.2,45.3z"/>
	<path class="st1" d="M65.1,76.8c-2.7,2.4-11.8,10.7-13.3,12c0,1.9,0,14,0,18c4.2,0,22.6,0,26.8,0c0-4,0-16,0-17.9
		C77.1,87.5,67.8,79.2,65.1,76.8L65.1,76.8z"/>
	<polygon class="st1" points="393.6,74.7 393.6,85.4 414.9,85.4 414.9,125.6 426.6,125.6 426.6,85.4 447.3,85.4 447.3,74.7 
		393.6,74.7 	"/>
	<path class="st1" d="M572.8,74.7v36.2l-31.9-33c-2.8-3-6.1-4.2-9.8-3.6c-3.3,0.5-5.5,3.2-5.5,6.9v44.5H537V89.4l31.4,32.5
		c3.3,3.4,6.2,4.7,9.6,4.3c5.6-0.8,6.2-4.9,6.2-7.9V74.7H572.8L572.8,74.7z"/>
	<path class="st1" d="M502.9,100c0,14.7-6.4,15.4-18.8,15.4c-12.4,0-18.8-0.7-18.8-15.4c0-14.7,6.4-15.4,18.8-15.4
		C496.4,84.6,502.9,85.3,502.9,100L502.9,100z M452.9,100c0,22.1,11.1,26.4,31.1,26.4c20,0,31.1-4.3,31.1-26.4
		c0-22.1-11.1-26.4-31.1-26.4C464,73.7,452.9,78,452.9,100L452.9,100z"/>
	<polygon class="st1" points="314.9,74.6 303.3,74.6 303.3,125.6 314.9,125.6 314.9,74.6 	"/>
	<path class="st1" d="M246.7,85.2c2,0,23.4,0,23.4,0c6.9,0,7.7,3.1,7.7,6.1c0,3-0.9,6.1-7.7,6.1c0,0-21.4,0-23.4,0
		C246.7,95.7,246.7,86.9,246.7,85.2L246.7,85.2z M278,106.2c7.3-1.8,11.4-7.3,11.4-14.9c0-10.3-6.8-16.7-17.7-16.7h-36.4v50.9h11.4
		v-18.2h18.5l12.8,18.2h13.4L278,106.2L278,106.2z"/>
	<path class="st1" d="M362.4,93.6h-10.2c-8.8,0-10.6-1.7-10.6-4.8c0-3.8,5.9-5.3,14.2-5.3c7.3,0,14.2,1.2,22.1,5l6.1-8.6
		c-8.7-5.3-17.3-7.2-28.2-7.2c-16.6,0-26.5,6.2-26.5,16.7c0,11.4,9.4,15.2,21.5,15.1h11.3c11.1,0,12.6,1.3,12.6,5.5
		c0,4.2-6.1,6.8-16,6.8c-8.7,0-17.6-1.7-25.4-6.9c0,0-6.2,8.8-6.2,8.8c8.3,6.6,18.6,8.9,31.6,8.9c18.1,0,28.6-6.6,28.6-18.1
		C387.2,98.8,378.8,93.6,362.4,93.6L362.4,93.6z"/>
	<path class="st1" d="M192.3,87.8c0.4,0.7,5.9,9.9,11.3,19.1H181C181,106.9,191.9,88.5,192.3,87.8L192.3,87.8L192.3,87.8z
		 M192.3,73.1c-2.4,0-4.7,1.1-5.8,2.9l-30.2,49.6h13.6l5.5-9.3h33.8l5.5,9.3h13.6L198.1,76C197,74.2,194.7,73.1,192.3,73.1
		L192.3,73.1z"/>
</g>
</svg>
