<svg width="33" height="33" viewBox="0 0 33 33" fill="none" xmlns="http://www.w3.org/2000/svg">
<path d="M9.85718 26.4282C8.05003 26.4282 6.58789 27.9068 6.58789 29.7139C6.58789 31.5211 8.05003 32.9997 9.85718 32.9997C11.6643 32.9997 13.1429 31.5211 13.1429 29.7139C13.1429 27.9068 11.6643 26.4282 9.85718 26.4282Z" fill="#5E5B66"/>
<path d="M26.2859 26.4282C24.4787 26.4282 23.0166 27.9068 23.0166 29.7139C23.0166 31.5211 24.4787 32.9997 26.2859 32.9997C28.093 32.9997 29.5716 31.5211 29.5716 29.7139C29.5716 27.9068 28.093 26.4282 26.2859 26.4282Z" fill="#5E5B66"/>
<path d="M23.9036 18.214C25.1357 18.214 26.22 17.5404 26.7786 16.5219L32.66 5.85972C33.2679 4.77544 32.4793 3.42829 31.2307 3.42829H6.91643L5.37214 0.142578H0V3.42829H3.28571L9.2 15.8976L6.98214 19.9061C5.78286 22.1076 7.36 24.7854 9.85714 24.7854H29.5714V21.4997H9.85714L11.6643 18.214H23.9036ZM8.47714 6.71401H28.4379L23.9036 14.9283H12.3707L8.47714 6.71401Z" fill="#5E5B66"/>
</svg>
