<svg width="28" height="28" viewBox="0 0 28 28" fill="none" xmlns="http://www.w3.org/2000/svg">
<path d="M22.1087 17.3453C21.5355 16.7484 20.8441 16.4293 20.1113 16.4293C19.3844 16.4293 18.687 16.7425 18.0902 17.3393L16.2227 19.2009C16.0691 19.1182 15.9154 19.0413 15.7677 18.9645C15.5549 18.8581 15.354 18.7577 15.1826 18.6513C13.4333 17.5403 11.8437 16.0924 10.319 14.219C9.58025 13.2853 9.08384 12.4993 8.72335 11.7015C9.20794 11.2583 9.65707 10.7973 10.0944 10.3541C10.2599 10.1886 10.4253 10.0173 10.5908 9.8518C11.8318 8.61077 11.8318 7.00333 10.5908 5.76231L8.97746 4.14897C8.79426 3.96577 8.60515 3.77666 8.42786 3.58755C8.07328 3.22115 7.70097 2.84293 7.31685 2.48835C6.74361 1.92102 6.05809 1.61963 5.33711 1.61963C4.61613 1.61963 3.91879 1.92102 3.32782 2.48835C3.32191 2.49426 3.32191 2.49426 3.316 2.50017L1.30672 4.52718C0.550278 5.28362 0.118872 6.20553 0.0243174 7.27518C-0.117515 9.0008 0.390717 10.6082 0.780755 11.6602C1.73812 14.2427 3.16826 16.6361 5.30165 19.2009C7.89008 22.2916 11.0045 24.7323 14.5621 26.452C15.9213 27.0962 17.7356 27.8586 19.7626 27.9886C19.8867 27.9945 20.0167 28.0004 20.1349 28.0004C21.5 28.0004 22.6465 27.5099 23.5448 26.5348C23.5507 26.523 23.5625 26.5171 23.5684 26.5052C23.8757 26.1329 24.2303 25.7961 24.6026 25.4356C24.8567 25.1933 25.1168 24.9392 25.3709 24.6732C25.9559 24.0645 26.2632 23.3554 26.2632 22.6285C26.2632 21.8957 25.95 21.1924 25.3531 20.6015L22.1087 17.3453ZM24.2244 23.5681C24.2185 23.574 24.2185 23.5681 24.2244 23.5681C23.9939 23.8163 23.7575 24.0409 23.5034 24.2891C23.1193 24.6555 22.7293 25.0396 22.3629 25.471C21.766 26.1093 21.0627 26.4107 20.1408 26.4107C20.0522 26.4107 19.9576 26.4107 19.869 26.4048C18.1138 26.2925 16.4827 25.607 15.2594 25.0219C11.9146 23.4027 8.97746 21.1038 6.53677 18.1903C4.52157 15.7615 3.17417 13.5158 2.28181 11.1046C1.73221 9.63314 1.53128 8.48666 1.61993 7.40519C1.67902 6.71376 1.94496 6.14052 2.43546 5.65002L4.45066 3.63483C4.74023 3.36298 5.04753 3.21524 5.34893 3.21524C5.72124 3.21524 6.02263 3.43981 6.21174 3.62892C6.21765 3.63483 6.22356 3.64074 6.22947 3.64664C6.58996 3.9835 6.93272 4.33217 7.29321 4.70447C7.47641 4.89358 7.66552 5.08269 7.85463 5.27771L9.46797 6.89105C10.0944 7.51748 10.0944 8.09662 9.46797 8.72305C9.29659 8.89443 9.13111 9.06581 8.95973 9.23128C8.46332 9.73951 7.99055 10.2123 7.47641 10.6732C7.46459 10.6851 7.45277 10.691 7.44686 10.7028C6.93863 11.211 7.03318 11.7074 7.13956 12.0443C7.14547 12.062 7.15138 12.0797 7.15729 12.0975C7.57687 13.1139 8.16784 14.0713 9.06611 15.2119L9.07202 15.2178C10.7031 17.2271 12.4228 18.7931 14.3198 19.9928C14.5621 20.1464 14.8103 20.2705 15.0467 20.3887C15.2594 20.4951 15.4604 20.5956 15.6317 20.7019C15.6554 20.7138 15.679 20.7315 15.7027 20.7433C15.9036 20.8438 16.0927 20.8911 16.2877 20.8911C16.7782 20.8911 17.0855 20.5837 17.186 20.4833L19.2071 18.4622C19.408 18.2613 19.7271 18.019 20.0995 18.019C20.4659 18.019 20.7672 18.2494 20.9504 18.4504C20.9564 18.4563 20.9564 18.4563 20.9623 18.4622L24.2185 21.7184C24.8272 22.3212 24.8272 22.9417 24.2244 23.5681Z" fill="#EE887F"/>
<path d="M15.1118 6.66078C16.6601 6.9208 18.0666 7.6536 19.1894 8.77644C20.3123 9.89928 21.0392 11.3058 21.3051 12.8541C21.3701 13.2441 21.707 13.516 22.0911 13.516C22.1384 13.516 22.1797 13.5101 22.227 13.5042C22.6643 13.4333 22.9539 13.0196 22.883 12.5823C22.5639 10.7089 21.6774 9.00101 20.3241 7.64769C18.9708 6.29438 17.2629 5.40793 15.3895 5.08881C14.9522 5.01789 14.5444 5.30746 14.4676 5.73887C14.3908 6.17028 14.6745 6.58986 15.1118 6.66078Z" fill="#EE887F"/>
<path d="M27.9477 12.3515C27.4217 9.2667 25.968 6.45961 23.7341 4.22576C21.5003 1.9919 18.6932 0.538123 15.6083 0.012163C15.1769 -0.0646627 14.7691 0.230821 14.6923 0.662226C14.6214 1.09954 14.911 1.50731 15.3483 1.58413C18.1022 2.051 20.6138 3.35703 22.6113 5.34859C24.6087 7.34606 25.9089 9.85767 26.3757 12.6116C26.4407 13.0016 26.7776 13.2735 27.1617 13.2735C27.209 13.2735 27.2504 13.2675 27.2976 13.2616C27.729 13.1966 28.0245 12.783 27.9477 12.3515Z" fill="#EE887F"/>
</svg>
