<svg width="25" height="19" viewBox="0 0 25 19" fill="none" xmlns="http://www.w3.org/2000/svg">
<path d="M24.9267 17.644C24.9377 17.6217 24.945 17.6031 24.9524 17.5808C24.9817 17.4656 25 17.3467 25 17.2241V1.78377C24.9853 1.27479 24.7288 0.806672 24.3147 0.524317C23.831 0.175088 23.252 -0.00695647 22.6583 0.000473923H2.34535C1.75169 -0.0106717 1.17268 0.175088 0.688947 0.524317C0.271181 0.806672 0.0183231 1.27479 0 1.78377V17.2241C0 17.343 0.0183231 17.4656 0.04764 17.5808C0.0549692 17.6031 0.0622984 17.6217 0.0732923 17.644C0.102609 17.7368 0.139255 17.826 0.183231 17.9114C0.183231 17.9226 0.194225 17.9263 0.201554 17.9375C0.326151 18.1492 0.491058 18.3313 0.685283 18.4762C0.787892 18.5542 0.897831 18.621 1.01143 18.6805L1.03342 18.6954C1.14336 18.7511 1.26063 18.7994 1.37789 18.8365L1.43653 18.8588C1.55013 18.8923 1.6674 18.922 1.78467 18.9406C1.81765 18.9406 1.84697 18.9591 1.87628 18.9628C2.0302 18.9889 2.18777 19 2.34535 19H22.6656C22.8232 19 22.9771 18.9889 23.1347 18.9628C23.1677 18.9628 23.197 18.948 23.23 18.9406C23.3473 18.922 23.4645 18.8923 23.5781 18.8588C23.6001 18.8588 23.6184 18.844 23.6368 18.8328C23.754 18.7957 23.8676 18.7474 23.9776 18.6916L23.9996 18.6768C24.1132 18.6173 24.2231 18.5505 24.3257 18.4724C24.5199 18.3275 24.6848 18.1455 24.8094 17.9337C24.8094 17.9226 24.8241 17.9152 24.8278 17.904C24.8644 17.8223 24.9011 17.7368 24.9267 17.644ZM23.4389 15.2997L15.8165 9.50395L23.4389 3.70453V15.2997ZM1.792 1.35652C1.95324 1.24135 2.14746 1.17819 2.34535 1.18191H22.6656C22.8635 1.17819 23.0578 1.24135 23.219 1.35652C23.4462 1.50141 23.5158 1.80978 23.3692 2.04012C23.3289 2.10328 23.2776 2.15529 23.219 2.19244L13.0607 9.92005C12.7272 10.1467 12.2911 10.1467 11.9576 9.92005L1.792 2.19244C1.56479 2.04755 1.49516 1.73919 1.64175 1.50884C1.67839 1.4494 1.7297 1.39739 1.792 1.35652ZM9.18719 9.50024L1.56479 15.2997V3.70453L9.18719 9.50024ZM2.34535 17.8186C2.24274 17.8186 2.1438 17.8037 2.04485 17.774C1.95324 17.7443 1.86895 17.6997 1.792 17.6402C1.72237 17.5882 1.6674 17.5251 1.62342 17.4508C1.58311 17.3802 1.56113 17.3022 1.56113 17.2204C1.56479 17.0532 1.64908 16.8972 1.78467 16.8043L10.2866 10.3362L10.8399 10.756C11.8367 11.4507 13.1523 11.4507 14.1527 10.756L14.7061 10.3362L23.208 16.8043C23.3436 16.8972 23.4279 17.0532 23.4315 17.2204C23.4315 17.3022 23.4096 17.3802 23.3692 17.4508C23.3289 17.5251 23.2703 17.5882 23.2007 17.6402C23.1237 17.6997 23.0394 17.7443 22.9478 17.774C22.8489 17.8037 22.7499 17.8186 22.6473 17.8186H2.34535Z" fill="#EE887F"/>
</svg>
