<svg width="127" height="29" viewBox="0 0 127 29" fill="none" xmlns="http://www.w3.org/2000/svg">
<path d="M0.782598 0.575195H14.3816V4.58207H9.76498V28.5733H5.34906V4.58207H0.732422V0.575195H0.782598Z" fill="#3F3C46"/>
<path d="M19.9018 18.5062V22.1124C19.9018 24.1158 20.8051 24.817 22.16 24.817C23.565 24.817 24.4181 24.1158 24.4181 22.1124V16.052H20.3535V12.0451H24.4181V6.98643C24.4181 4.98299 23.5149 4.2317 22.16 4.2317C20.7549 4.2317 19.9018 4.98299 19.9018 6.98643V9.64099H15.8372V7.28694C15.8372 2.82929 17.995 0.274902 22.3105 0.274902C26.6261 0.274902 28.8842 2.82929 28.8842 7.28694V21.8119C28.8842 26.2695 26.6261 28.8239 22.3105 28.8239C17.995 28.8239 15.7368 26.2695 15.7368 21.8119V18.5062H19.9018Z" fill="#3F3C46"/>
<path d="M36.1601 28.5232H31.7441V0.575195H36.1601V12.5457H41.1781V0.575195H45.6443V28.5232H41.1781V16.5526H36.1601V28.5232Z" fill="#3F3C46"/>
<path d="M59.4442 28.5232H55.0283V0.575195H68.9284V28.5232H64.4623V4.58207H59.4442V28.5232Z" fill="#3F3C46"/>
<path d="M70.9353 24.5664C72.9426 24.5664 73.5949 24.2659 73.6451 21.7115L74.3476 0.575195H86.7925V28.5232H82.3264V4.58207H78.4625L77.9607 21.4611C77.8101 26.5698 75.9534 28.5733 71.5375 28.5733H70.835V24.5664H70.9353Z" fill="#3F3C46"/>
<path d="M97.8325 16.5529H94.5707V28.5234H90.1548V0.575419H94.5707V12.546H97.8325V7.28694C97.8325 2.82929 100.191 0.274902 104.507 0.274902C108.822 0.274902 111.181 2.82929 111.181 7.28694V21.8119C111.181 26.2695 108.822 28.8239 104.507 28.8239C100.191 28.8239 97.8325 26.2695 97.8325 21.8119V16.5529ZM102.248 22.1124C102.248 24.1158 103.152 24.8671 104.507 24.8671C105.912 24.8671 106.765 24.1158 106.765 22.1124V6.98643C106.765 4.98299 105.861 4.2317 104.507 4.2317C103.101 4.2317 102.248 4.98299 102.248 6.98643V22.1124Z" fill="#3F3C46"/>
<path d="M126.887 18.1055V21.8119C126.887 26.2695 124.629 28.8239 120.313 28.8239C115.998 28.8239 113.74 26.2695 113.74 21.8119V7.28694C113.74 2.82929 115.998 0.274902 120.313 0.274902C124.629 0.274902 126.887 2.82929 126.887 7.28694V9.99159H122.722V6.98643C122.722 4.98299 121.819 4.2317 120.464 4.2317C119.109 4.2317 118.206 4.98299 118.206 6.98643V22.1124C118.206 24.1158 119.109 24.817 120.464 24.817C121.819 24.817 122.722 24.1158 122.722 22.1124V18.1055H126.887Z" fill="#3F3C46"/>
</svg>
