<svg width="58" height="58" viewBox="0 0 58 58" fill="none" xmlns="http://www.w3.org/2000/svg">
<path d="M42.0518 27.0963C39.0911 28.3484 35.2773 25.9944 35.2773 25.9944C35.2773 25.9944 36.281 21.6369 39.2416 20.4348C42.2023 19.1827 46.016 21.5367 46.016 21.5367C46.016 21.5367 45.0124 25.8441 42.0518 27.0963Z" fill="url(#paint0_linear)"/>
<path d="M30.3091 41.9725C29.0545 39.0175 31.413 35.2109 31.413 35.2109C31.413 35.2109 35.7788 36.2127 36.9831 39.1677C38.2376 42.1228 35.8791 45.9293 35.8791 45.9293C35.8791 45.9293 31.5636 44.9276 30.3091 41.9725Z" fill="url(#paint1_linear)"/>
<path d="M36.9833 18.1312C35.7789 21.0863 31.4132 22.1381 31.4132 22.1381C31.4132 22.1381 29.0547 18.3316 30.259 15.3765C31.4634 12.4214 35.8291 11.3696 35.8291 11.3696C35.8291 11.3696 38.2378 15.1762 36.9833 18.1312Z" fill="url(#paint2_linear)"/>
<path d="M39.2415 36.9137C36.2808 35.7117 35.2271 31.3542 35.2271 31.3542C35.2271 31.3542 39.0408 29.0002 42.0015 30.2022C44.9621 31.4043 46.0159 35.7618 46.0159 35.7618C46.0159 35.7618 42.2524 38.1659 39.2415 36.9137Z" fill="url(#paint3_linear)"/>
<path d="M47.672 14.1245C45.715 16.0778 41.9013 15.4768 41.9013 15.4768C41.9013 15.4768 41.2489 11.6702 43.206 9.71689C45.163 7.76354 48.9767 8.36457 48.9767 8.36457C48.9767 8.36457 49.6291 12.1711 47.672 14.1245Z" fill="url(#paint4_linear)"/>
<path d="M43.2557 47.5814C41.2987 45.628 41.9009 41.8215 41.9009 41.8215C41.9009 41.8215 45.7146 41.1703 47.6717 43.1237C49.6287 45.0771 49.0265 48.8836 49.0265 48.8836C49.0265 48.8836 45.2128 49.5347 43.2557 47.5814Z" fill="url(#paint5_linear)"/>
<path d="M31.8145 5.0086C31.8145 7.76333 28.6531 10.0172 28.6531 10.0172C28.6531 10.0172 25.4917 7.76333 25.4917 5.0086C25.4917 2.25387 28.6531 0 28.6531 0C28.6531 0 31.8145 2.25387 31.8145 5.0086Z" fill="url(#paint6_linear)"/>
<path d="M25.5923 52.2899C25.5923 49.5351 28.7537 47.2812 28.7537 47.2812C28.7537 47.2812 31.9151 49.5351 31.9151 52.2899C31.9151 55.0446 28.7537 57.2985 28.7537 57.2985C28.7537 57.2985 25.5923 55.0947 25.5923 52.2899Z" fill="url(#paint7_linear)"/>
<path d="M52.3892 31.7547C49.6292 31.7547 47.3711 28.5993 47.3711 28.5993C47.3711 28.5993 49.6292 25.4438 52.3892 25.4438C55.1491 25.4438 57.4073 28.5993 57.4073 28.5993C57.4073 28.5993 55.1993 31.7547 52.3892 31.7547Z" fill="url(#paint8_linear)"/>
<path d="M15.4057 27.0963C18.3664 28.3484 22.1801 25.9944 22.1801 25.9944C22.1801 25.9944 21.1765 21.6369 18.2158 20.4348C15.2552 19.1827 11.4414 21.5367 11.4414 21.5367C11.4414 21.5367 12.445 25.8441 15.4057 27.0963Z" fill="url(#paint9_linear)"/>
<path d="M27.0978 41.9725C28.3524 39.0175 25.9939 35.2109 25.9939 35.2109C25.9939 35.2109 21.6281 36.2127 20.4238 39.1677C19.1693 42.1228 21.5278 45.9293 21.5278 45.9293C21.5278 45.9293 25.8433 44.9276 27.0978 41.9725Z" fill="url(#paint10_linear)"/>
<path d="M20.4235 18.1312C21.6279 21.0863 25.9936 22.1381 25.9936 22.1381C25.9936 22.1381 28.3521 18.3316 27.1478 15.3765C25.9434 12.4214 21.5777 11.3696 21.5777 11.3696C21.5777 11.3696 19.169 15.1762 20.4235 18.1312Z" fill="url(#paint11_linear)"/>
<path d="M18.1655 36.9137C21.1262 35.7117 22.1298 31.3542 22.1298 31.3542C22.1298 31.3542 18.3161 29.0002 15.3554 30.2022C12.3947 31.4043 11.3911 35.7618 11.3911 35.7618C11.3911 35.7618 15.2049 38.1659 18.1655 36.9137Z" fill="url(#paint12_linear)"/>
<path d="M9.73476 14.1245C11.6918 16.0778 15.5056 15.4768 15.5056 15.4768C15.5056 15.4768 16.1579 11.6702 14.2009 9.71689C12.2438 7.76354 8.43006 8.36457 8.43006 8.36457C8.43006 8.36457 7.77771 12.1711 9.73476 14.1245Z" fill="url(#paint13_linear)"/>
<path d="M14.1512 47.5814C16.1082 45.628 15.506 41.8215 15.506 41.8215C15.506 41.8215 11.6923 41.1703 9.73524 43.1237C7.77819 45.0771 8.38036 48.8836 8.38036 48.8836C8.38036 48.8836 12.1941 49.5347 14.1512 47.5814Z" fill="url(#paint14_linear)"/>
<path d="M5.01809 31.7547C7.77803 31.7547 10.0362 28.5993 10.0362 28.5993C10.0362 28.5993 7.77803 25.4438 5.01809 25.4438C2.25814 25.4438 0 28.6494 0 28.6494C0 28.6494 2.25814 31.7547 5.01809 31.7547Z" fill="url(#paint15_linear)"/>
<defs>
<linearGradient id="paint0_linear" x1="35.7943" y1="25.679" x2="45.7753" y2="21.6278" gradientUnits="userSpaceOnUse">
<stop stop-color="#F29182"/>
<stop offset="0.4858" stop-color="#E57278"/>
<stop offset="0.61" stop-color="#DB6C77"/>
<stop offset="1" stop-color="#BD5C73"/>
</linearGradient>
<linearGradient id="paint1_linear" x1="31.9836" y1="36.4087" x2="35.5182" y2="45.1097" gradientUnits="userSpaceOnUse">
<stop stop-color="#F29181"/>
<stop offset="0.4888" stop-color="#E97178"/>
<stop offset="0.9942" stop-color="#C45D73"/>
</linearGradient>
<linearGradient id="paint2_linear" x1="31.6778" y1="21.5872" x2="35.7059" y2="11.6555" gradientUnits="userSpaceOnUse">
<stop stop-color="#F29181"/>
<stop offset="0.4888" stop-color="#E97178"/>
<stop offset="1" stop-color="#C45D73"/>
</linearGradient>
<linearGradient id="paint3_linear" x1="35.6259" y1="31.6092" x2="45.6122" y2="35.5401" gradientUnits="userSpaceOnUse">
<stop stop-color="#EF9686"/>
<stop offset="0.502" stop-color="#E77278"/>
<stop offset="1" stop-color="#BD5C72"/>
</linearGradient>
<linearGradient id="paint4_linear" x1="41.9954" y1="15.2787" x2="48.9852" y2="8.46379" gradientUnits="userSpaceOnUse">
<stop stop-color="#D46074"/>
<stop offset="0.4721" stop-color="#C05B73"/>
<stop offset="0.6416" stop-color="#B55A74"/>
<stop offset="1" stop-color="#A05876"/>
</linearGradient>
<linearGradient id="paint5_linear" x1="42.4941" y1="42.3123" x2="47.5993" y2="47.5193" gradientUnits="userSpaceOnUse">
<stop stop-color="#D46074"/>
<stop offset="0.4721" stop-color="#C05B73"/>
<stop offset="0.6416" stop-color="#B55A74"/>
<stop offset="1" stop-color="#A05876"/>
</linearGradient>
<linearGradient id="paint6_linear" x1="28.6581" y1="9.82698" x2="28.7167" y2="0.257466" gradientUnits="userSpaceOnUse">
<stop stop-color="#A95973"/>
<stop offset="0.4897" stop-color="#845675"/>
<stop offset="1" stop-color="#685577"/>
</linearGradient>
<linearGradient id="paint7_linear" x1="28.7701" y1="47.5901" x2="28.7403" y2="56.9744" gradientUnits="userSpaceOnUse">
<stop stop-color="#A95973"/>
<stop offset="0.4897" stop-color="#845675"/>
<stop offset="1" stop-color="#685577"/>
</linearGradient>
<linearGradient id="paint8_linear" x1="47.3668" y1="28.6633" x2="57.4431" y2="28.6039" gradientUnits="userSpaceOnUse">
<stop stop-color="#AF5A70"/>
<stop offset="0.4939" stop-color="#865674"/>
<stop offset="1" stop-color="#685577"/>
</linearGradient>
<linearGradient id="paint9_linear" x1="21.6844" y1="25.5419" x2="11.8422" y2="21.1963" gradientUnits="userSpaceOnUse">
<stop stop-color="#F29182"/>
<stop offset="0.4858" stop-color="#E57278"/>
<stop offset="0.61" stop-color="#DB6C77"/>
<stop offset="1" stop-color="#BD5C73"/>
</linearGradient>
<linearGradient id="paint10_linear" x1="25.5571" y1="36.4579" x2="22.2742" y2="45.2488" gradientUnits="userSpaceOnUse">
<stop stop-color="#F29181"/>
<stop offset="0.4888" stop-color="#E97178"/>
<stop offset="0.9942" stop-color="#C45D73"/>
</linearGradient>
<linearGradient id="paint11_linear" x1="25.8834" y1="21.5304" x2="22.142" y2="11.4958" gradientUnits="userSpaceOnUse">
<stop stop-color="#F29181"/>
<stop offset="0.4888" stop-color="#E97178"/>
<stop offset="1" stop-color="#C45D73"/>
</linearGradient>
<linearGradient id="paint12_linear" x1="21.8527" y1="31.748" x2="11.9965" y2="35.9683" gradientUnits="userSpaceOnUse">
<stop stop-color="#EF9686"/>
<stop offset="0.502" stop-color="#E77278"/>
<stop offset="1" stop-color="#BD5C72"/>
</linearGradient>
<linearGradient id="paint13_linear" x1="15.5795" y1="15.14" x2="8.88842" y2="8.04357" gradientUnits="userSpaceOnUse">
<stop stop-color="#D46074"/>
<stop offset="0.4721" stop-color="#C05B73"/>
<stop offset="0.6416" stop-color="#B55A74"/>
<stop offset="1" stop-color="#A05876"/>
</linearGradient>
<linearGradient id="paint14_linear" x1="15.0642" y1="42.4358" x2="10.1917" y2="47.842" gradientUnits="userSpaceOnUse">
<stop stop-color="#D46074"/>
<stop offset="0.4721" stop-color="#C05B73"/>
<stop offset="0.6416" stop-color="#B55A74"/>
<stop offset="1" stop-color="#A05876"/>
</linearGradient>
<linearGradient id="paint15_linear" x1="10.0632" y1="28.6609" x2="-0.00118298" y2="28.5963" gradientUnits="userSpaceOnUse">
<stop stop-color="#AF5A70"/>
<stop offset="0.4939" stop-color="#865674"/>
<stop offset="1" stop-color="#685577"/>
</linearGradient>
</defs>
</svg>
