<svg width="661" height="347" viewBox="0 0 661 347" fill="none" xmlns="http://www.w3.org/2000/svg">
<path d="M313.574 83.0238C287.46 47.2151 237.261 39.3561 201.453 65.4703C165.644 91.5844 157.785 141.783 183.899 177.592L307.443 347L301.255 347L179.859 180.538C152.118 142.498 160.467 89.1717 198.507 61.4304C236.546 33.6892 289.873 42.0378 317.614 80.0777L512.272 347L506.083 347L313.574 83.0238Z" fill="#3A3140"/>
<path d="M180.13 288.86C154.016 253.052 103.818 245.193 68.0088 271.307C43.3367 289.299 31.9328 318.725 35.7673 347L30.7233 347C26.9215 317.171 39.05 286.237 65.0627 267.267C103.103 239.526 156.429 247.874 184.17 285.914L228.718 347L222.53 347L180.13 288.86Z" fill="#3A3140"/>
<path d="M598.945 92.286C572.83 56.4773 522.632 48.6183 486.823 74.7325C451.015 100.847 443.156 151.045 469.27 186.854L586.059 347L579.871 347L465.23 189.8C437.489 151.76 445.837 98.4339 483.877 70.6926C521.917 42.9514 575.243 51.3001 602.984 89.3399L661 168.893L661 177.379L598.945 92.286Z" fill="#3A3140"/>
<path d="M321.271 102.184C306.547 81.9934 278.242 77.5621 258.052 92.2865C237.861 107.011 233.43 135.315 248.154 155.506L387.805 347L338.298 347L215.835 179.075C188.094 141.035 196.443 87.709 234.483 59.9678C272.522 32.2265 325.849 40.5752 353.59 78.6151L549.314 347L499.808 347L321.271 102.184Z" fill="#FFC57E"/>
<path d="M187.827 308.021C173.103 287.83 144.798 283.399 124.608 298.123C108.88 309.593 102.714 329.304 107.718 347L66.8987 347C62.5046 316.724 74.6006 285.085 101.039 265.804C139.079 238.063 192.405 246.412 220.146 284.452L265.761 347L216.254 347L187.827 308.021Z" fill="#C25F74"/>
<path d="M606.642 111.446C591.917 91.2556 563.613 86.8243 543.422 101.549C523.232 116.273 518.8 144.577 533.525 164.768L661 339.568L661 347L616.914 347L501.206 188.337C473.465 150.297 481.813 96.9712 519.853 69.23C557.893 41.4887 611.219 49.8374 638.96 87.8773L661 118.099L661.011 186L606.642 111.446Z" fill="#795676"/>
</svg>
