<?xml version="1.0" encoding="utf-8"?>
<!-- Generator: Adobe Illustrator 23.0.1, SVG Export Plug-In . SVG Version: 6.00 Build 0)  -->
<svg version="1.1" id="Слой_1" xmlns="http://www.w3.org/2000/svg" xmlns:xlink="http://www.w3.org/1999/xlink" x="0px" y="0px"
	 viewBox="0 0 114.4 114.4" style="enable-background:new 0 0 114.4 114.4;" xml:space="preserve">
<style type="text/css">
	.st0{fill:url(#SVGID_1_);}
	.st1{fill:url(#SVGID_2_);}
	.st2{fill:url(#SVGID_3_);}
	.st3{fill:url(#SVGID_4_);}
	.st4{fill:url(#SVGID_5_);}
	.st5{fill:url(#SVGID_6_);}
	.st6{fill:url(#SVGID_7_);}
	.st7{fill:url(#SVGID_8_);}
	.st8{fill:url(#SVGID_9_);}
	.st9{fill:url(#SVGID_10_);}
	.st10{fill:url(#SVGID_11_);}
	.st11{fill:url(#SVGID_12_);}
	.st12{fill:url(#SVGID_13_);}
	.st13{fill:url(#SVGID_14_);}
	.st14{fill:url(#SVGID_15_);}
	.st15{fill:url(#SVGID_16_);}
</style>
<g>
	
		<linearGradient id="SVGID_1_" gradientUnits="userSpaceOnUse" x1="66.6415" y1="59.5348" x2="86.589" y2="67.4794" gradientTransform="matrix(1 -5.892456e-03 -5.892456e-03 -1 5.0733 111.2812)">
		<stop  offset="0" style="stop-color:#F29182"/>
		<stop  offset="0.4858" style="stop-color:#E57278"/>
		<stop  offset="0.61" style="stop-color:#DB6C77"/>
		<stop  offset="1" style="stop-color:#BD5C73"/>
	</linearGradient>
	<path class="st0" d="M83.8,54.1c-5.9,2.5-13.5-2.2-13.5-2.2s2-8.7,7.9-11.1c5.9-2.5,13.5,2.2,13.5,2.2S89.7,51.6,83.8,54.1z"/>
	
		<linearGradient id="SVGID_2_" gradientUnits="userSpaceOnUse" x1="58.8301" y1="38.2191" x2="65.7941" y2="20.8153" gradientTransform="matrix(1 -5.892456e-03 -5.892456e-03 -1 5.0733 111.2812)">
		<stop  offset="0" style="stop-color:#F29181"/>
		<stop  offset="0.4888" style="stop-color:#E97178"/>
		<stop  offset="0.9942" style="stop-color:#C45D73"/>
	</linearGradient>
	<path class="st1" d="M60.4,83.8c-2.5-5.9,2.2-13.5,2.2-13.5s8.7,2,11.1,7.9c2.5,5.9-2.2,13.5-2.2,13.5S62.9,89.7,60.4,83.8z"/>
	
		<linearGradient id="SVGID_3_" gradientUnits="userSpaceOnUse" x1="58.4126" y1="67.8538" x2="66.5823" y2="87.6243" gradientTransform="matrix(1 -5.892456e-03 -5.892456e-03 -1 5.0733 111.2812)">
		<stop  offset="0" style="stop-color:#F29181"/>
		<stop  offset="0.4888" style="stop-color:#E97178"/>
		<stop  offset="1" style="stop-color:#C45D73"/>
	</linearGradient>
	<path class="st2" d="M73.7,36.2c-2.4,5.9-11.1,8-11.1,8s-4.7-7.6-2.3-13.5s11.1-8,11.1-8S76.2,30.3,73.7,36.2z"/>
	
		<linearGradient id="SVGID_4_" gradientUnits="userSpaceOnUse" x1="66.2099" y1="47.799" x2="86.0738" y2="39.8593" gradientTransform="matrix(1 -5.892456e-03 -5.892456e-03 -1 5.0733 111.2812)">
		<stop  offset="0" style="stop-color:#EF9686"/>
		<stop  offset="0.502" style="stop-color:#E77278"/>
		<stop  offset="1" style="stop-color:#BD5C72"/>
	</linearGradient>
	<path class="st3" d="M78.2,73.7c-5.9-2.4-8-11.1-8-11.1s7.6-4.7,13.5-2.3s8,11.1,8,11.1S84.2,76.2,78.2,73.7z"/>
	
		<linearGradient id="SVGID_5_" gradientUnits="userSpaceOnUse" x1="79.0744" y1="80.3244" x2="93.1088" y2="93.8217" gradientTransform="matrix(1 -5.892456e-03 -5.892456e-03 -1 5.0733 111.2812)">
		<stop  offset="0" style="stop-color:#D46074"/>
		<stop  offset="0.4721" style="stop-color:#C05B73"/>
		<stop  offset="0.6416" style="stop-color:#B55A74"/>
		<stop  offset="1" style="stop-color:#A05876"/>
	</linearGradient>
	<path class="st4" d="M95,28.2c-3.9,3.9-11.5,2.7-11.5,2.7s-1.3-7.6,2.6-11.5s11.5-2.7,11.5-2.7S98.9,24.3,95,28.2z"/>
	
		<linearGradient id="SVGID_6_" gradientUnits="userSpaceOnUse" x1="79.7412" y1="26.309" x2="89.8728" y2="15.8724" gradientTransform="matrix(1 -5.892456e-03 -5.892456e-03 -1 5.0733 111.2812)">
		<stop  offset="0" style="stop-color:#D46074"/>
		<stop  offset="0.4721" style="stop-color:#C05B73"/>
		<stop  offset="0.6416" style="stop-color:#B55A74"/>
		<stop  offset="1" style="stop-color:#A05876"/>
	</linearGradient>
	<path class="st5" d="M86.2,95c-3.9-3.9-2.7-11.5-2.7-11.5s7.6-1.3,11.5,2.6s2.7,11.5,2.7,11.5S90.1,98.9,86.2,95z"/>
	
		<linearGradient id="SVGID_7_" gradientUnits="userSpaceOnUse" x1="52.5059" y1="91.352" x2="52.7358" y2="110.4568" gradientTransform="matrix(1 -5.892456e-03 -5.892456e-03 -1 5.0733 111.2812)">
		<stop  offset="0" style="stop-color:#A95973"/>
		<stop  offset="0.4897" style="stop-color:#845675"/>
		<stop  offset="1" style="stop-color:#685577"/>
	</linearGradient>
	<path class="st6" d="M63.4,10c0,5.5-6.3,10-6.3,10s-6.3-4.5-6.3-10s6.3-10,6.3-10S63.4,4.5,63.4,10z"/>
	
		<linearGradient id="SVGID_8_" gradientUnits="userSpaceOnUse" x1="52.3506" y1="15.956" x2="52.1805" y2="-2.7793" gradientTransform="matrix(1 -5.892456e-03 -5.892456e-03 -1 5.0733 111.2812)">
		<stop  offset="0" style="stop-color:#A95973"/>
		<stop  offset="0.4897" style="stop-color:#845675"/>
		<stop  offset="1" style="stop-color:#685577"/>
	</linearGradient>
	<path class="st7" d="M51,104.4c0-5.5,6.3-10,6.3-10s6.3,4.5,6.3,10s-6.3,10-6.3,10S51,110,51,104.4z"/>
	
		<linearGradient id="SVGID_9_" gradientUnits="userSpaceOnUse" x1="89.6428" y1="53.594" x2="109.7227" y2="53.594" gradientTransform="matrix(1 -5.892456e-03 -5.892456e-03 -1 5.0733 111.2812)">
		<stop  offset="0" style="stop-color:#AF5A70"/>
		<stop  offset="0.4939" style="stop-color:#865674"/>
		<stop  offset="1" style="stop-color:#685577"/>
	</linearGradient>
	<path class="st8" d="M104.4,63.4c-5.5,0-10-6.3-10-6.3s4.5-6.3,10-6.3s10,6.3,10,6.3S110,63.4,104.4,63.4z"/>
	
		<linearGradient id="SVGID_10_" gradientUnits="userSpaceOnUse" x1="-1576.6432" y1="69.5144" x2="-1558.0918" y2="76.9029" gradientTransform="matrix(-1.0878 -5.892456e-03 6.409714e-03 -1 -1672.3325 111.2812)">
		<stop  offset="0" style="stop-color:#F29182"/>
		<stop  offset="0.4858" style="stop-color:#E57278"/>
		<stop  offset="0.61" style="stop-color:#DB6C77"/>
		<stop  offset="1" style="stop-color:#BD5C73"/>
	</linearGradient>
	<path class="st9" d="M30.7,54.1c5.9,2.5,13.5-2.2,13.5-2.2s-2-8.7-7.9-11.1C30.4,38.3,22.8,43,22.8,43S24.8,51.6,30.7,54.1z"/>
	
		<linearGradient id="SVGID_11_" gradientUnits="userSpaceOnUse" x1="-1583.9325" y1="47.8075" x2="-1577.0509" y2="30.6097" gradientTransform="matrix(-1.0878 -5.892456e-03 6.409714e-03 -1 -1672.3325 111.2812)">
		<stop  offset="0" style="stop-color:#F29181"/>
		<stop  offset="0.4888" style="stop-color:#E97178"/>
		<stop  offset="0.9942" style="stop-color:#C45D73"/>
	</linearGradient>
	<path class="st10" d="M54,83.8c2.5-5.9-2.2-13.5-2.2-13.5s-8.7,2-11.1,7.9c-2.5,5.9,2.2,13.5,2.2,13.5S51.5,89.7,54,83.8z"/>
	
		<linearGradient id="SVGID_12_" gradientUnits="userSpaceOnUse" x1="-1584.3402" y1="77.6414" x2="-1576.2664" y2="97.1797" gradientTransform="matrix(-1.0878 -5.892456e-03 6.409714e-03 -1 -1672.3325 111.2812)">
		<stop  offset="0" style="stop-color:#F29181"/>
		<stop  offset="0.4888" style="stop-color:#E97178"/>
		<stop  offset="1" style="stop-color:#C45D73"/>
	</linearGradient>
	<path class="st11" d="M40.7,36.2c2.4,5.9,11.1,8,11.1,8s4.7-7.6,2.3-13.5s-11.1-8-11.1-8S38.2,30.3,40.7,36.2z"/>
	
		<linearGradient id="SVGID_13_" gradientUnits="userSpaceOnUse" x1="-1577.0321" y1="57.2294" x2="-1558.566" y2="49.8485" gradientTransform="matrix(-1.0878 -5.892456e-03 6.409714e-03 -1 -1672.3325 111.2812)">
		<stop  offset="0" style="stop-color:#EF9686"/>
		<stop  offset="0.502" style="stop-color:#E77278"/>
		<stop  offset="1" style="stop-color:#BD5C72"/>
	</linearGradient>
	<path class="st12" d="M36.2,73.7c5.9-2.4,7.9-11.1,7.9-11.1s-7.6-4.7-13.5-2.3s-7.9,11.1-7.9,11.1S30.3,76.2,36.2,73.7z"/>
	
		<linearGradient id="SVGID_14_" gradientUnits="userSpaceOnUse" x1="-1565.3568" y1="90.2717" x2="-1551.9032" y2="103.2104" gradientTransform="matrix(-1.0878 -5.892456e-03 6.409714e-03 -1 -1672.3325 111.2812)">
		<stop  offset="0" style="stop-color:#D46074"/>
		<stop  offset="0.4721" style="stop-color:#C05B73"/>
		<stop  offset="0.6416" style="stop-color:#B55A74"/>
		<stop  offset="1" style="stop-color:#A05876"/>
	</linearGradient>
	<path class="st13" d="M19.4,28.2c3.9,3.9,11.5,2.7,11.5,2.7s1.3-7.6-2.6-11.5s-11.5-2.7-11.5-2.7S15.5,24.3,19.4,28.2z"/>
	
		<linearGradient id="SVGID_15_" gradientUnits="userSpaceOnUse" x1="-1564.74" y1="35.7734" x2="-1555.0195" y2="25.7603" gradientTransform="matrix(-1.0878 -5.892456e-03 6.409714e-03 -1 -1672.3325 111.2812)">
		<stop  offset="0" style="stop-color:#D46074"/>
		<stop  offset="0.4721" style="stop-color:#C05B73"/>
		<stop  offset="0.6416" style="stop-color:#B55A74"/>
		<stop  offset="1" style="stop-color:#A05876"/>
	</linearGradient>
	<path class="st14" d="M28.2,95c3.9-3.9,2.7-11.5,2.7-11.5s-7.6-1.3-11.5,2.6s-2.7,11.5-2.7,11.5S24.3,98.9,28.2,95z"/>
	
		<linearGradient id="SVGID_16_" gradientUnits="userSpaceOnUse" x1="-1555.4156" y1="63.2919" x2="-1536.978" y2="63.2919" gradientTransform="matrix(-1.0878 -5.892456e-03 6.409714e-03 -1 -1672.3325 111.2812)">
		<stop  offset="0" style="stop-color:#AF5A70"/>
		<stop  offset="0.4939" style="stop-color:#865674"/>
		<stop  offset="1" style="stop-color:#685577"/>
	</linearGradient>
	<path class="st15" d="M10,63.4c5.5,0,10-6.3,10-6.3s-4.5-6.3-10-6.3S0,57.2,0,57.2S4.5,63.4,10,63.4z"/>
</g>
</svg>
